<svg width="19" height="23" viewBox="0 0 19 23" fill="none" xmlns="http://www.w3.org/2000/svg">
<path d="M6.78846 23V21.3576H11.7173V23H6.78846ZM18.2852 9.03963C18.2862 10.372 17.9914 11.688 17.4219 12.8926C16.8524 14.0971 16.0225 15.1602 14.9922 16.005C14.0084 16.8164 13.358 17.9644 13.358 19.2406V19.7152H5.14606V19.3473C5.14606 18.1155 4.64842 16.9001 3.67776 16.1397C2.36697 15.1144 1.3653 13.7466 0.783553 12.1874C0.201806 10.6283 0.0626485 8.93858 0.381472 7.30526C1.03186 3.80367 3.81736 0.937693 7.30417 0.210112C8.6246 -0.0796019 9.99317 -0.0695921 11.3092 0.239405C12.6253 0.548402 13.8553 1.14852 14.9088 1.99562C15.9623 2.84271 16.8125 3.91523 17.3968 5.13425C17.9811 6.35328 18.2847 7.6878 18.2852 9.03963ZM4.32486 9.86083C4.32486 6.466 6.27275 4.11244 9.25205 4.11244V2.47005C5.28895 2.47005 2.68247 5.62016 2.68247 9.86083H4.32486Z" fill="#2F4F4F"/>
</svg>
