<svg width="201" height="33" viewBox="0 0 201 33" fill="none" xmlns="http://www.w3.org/2000/svg">
<path d="M3.89833 28.8921C1.43388 26.288 0.20166 22.264 0.20166 16.8204C0.20166 11.362 1.43388 7.33071 3.89833 4.72657C6.3761 2.10772 10.0861 0.798294 15.0283 0.798294H19.4843C22.5083 0.798294 25.1792 1.66634 27.4971 3.40243C29.8283 5.13852 30.9939 7.51462 30.9939 10.5307C30.9939 11.3988 30.7608 12.024 30.2946 12.4066C29.8283 12.7744 29.3754 12.9583 28.9358 12.9583H26.5579C25.3324 12.9583 24.3799 12.1491 23.7005 10.5307C22.7147 8.20611 21.0762 7.04381 18.7849 7.04381H15.2281C12.3108 7.04381 10.3325 7.73531 9.29348 9.11829C8.25441 10.5013 7.73488 13.0613 7.73488 16.7983C7.73488 20.5353 8.25441 23.1027 9.29348 24.5004C10.3325 25.8834 12.3108 26.5748 15.2281 26.5748H19.2046C21.4958 26.5748 23.1277 25.4125 24.1002 23.0879C24.7795 21.4548 25.7387 20.6383 26.9776 20.6383H29.3554C29.9815 20.6383 30.4744 20.8958 30.8341 21.4107C31.2071 21.9257 31.3936 22.4847 31.3936 23.0879C31.3936 26.104 30.2346 28.4801 27.9167 30.2162C25.5988 31.9376 22.9279 32.7983 19.9039 32.7983H15.0283C10.0861 32.7983 6.3761 31.4962 3.89833 28.8921Z" fill="#2F4F4F"/>
<path d="M32.9322 30.5914L37.9477 9.58174C39.3065 3.85852 43.7292 0.989558 51.2157 0.974846H61.9861C62.4789 0.974846 62.8852 1.18082 63.205 1.59278C63.538 2.00473 63.7045 2.48289 63.7045 3.02726V30.5914C63.7045 31.1652 63.518 31.6507 63.145 32.048C62.772 32.4305 62.3257 32.6217 61.8062 32.6217H58.0496C57.5034 32.6217 57.0505 32.4305 56.6908 32.048C56.3445 31.6507 56.1713 31.1505 56.1713 30.5473V24.9859H41.9641L40.6253 30.5473C40.4921 31.1505 40.1923 31.6507 39.7261 32.048C39.2598 32.4305 38.767 32.6217 38.2474 32.6217H34.311C33.7914 32.6217 33.4184 32.4599 33.192 32.1362C32.9655 31.7978 32.8523 31.5036 32.8523 31.2535C32.8656 31.0034 32.8922 30.7827 32.9322 30.5914ZM43.4427 18.7404H56.1713V7.22036H50.4764C49.1976 7.22036 48.0786 7.62496 47.1194 8.43416C46.1736 9.22864 45.5342 10.3027 45.2012 11.6562L43.4427 18.7404Z" fill="#2F4F4F"/>
<path d="M67.7808 24.5224C67.7808 23.6544 68.014 23.0365 68.4802 22.6686C68.9465 22.2861 69.3994 22.0948 69.839 22.0948H72.2169C73.4158 22.0948 74.3283 22.8158 74.9544 24.2576C75.5805 25.6994 76.9859 26.4204 79.1706 26.4204L86.1643 26.5748C88.5089 26.5748 89.6811 25.7289 89.6811 24.0369C89.6811 22.7569 88.2491 21.7491 85.385 21.0135C84.1061 20.6751 82.6941 20.344 81.1488 20.0204C79.6035 19.682 78.0649 19.2627 76.533 18.7624C75.0143 18.2622 73.6156 17.6737 72.3367 16.9969C71.0579 16.3201 70.0188 15.3932 69.2195 14.2162C68.4336 13.0245 68.0406 11.6268 68.0406 10.0231C68.0406 7.06588 68.9931 4.79278 70.898 3.20381C72.803 1.60013 76.08 0.798294 80.7292 0.798294L85.8046 0.930708C88.5355 0.930708 90.9933 1.71048 93.178 3.27002C95.376 4.81485 96.475 6.74956 96.475 9.07416C96.475 9.9422 96.2419 10.5675 95.7756 10.95C95.3094 11.3325 94.8631 11.5238 94.4369 11.5238H92.059C90.8601 11.5238 89.9476 10.8029 89.3214 9.36105C88.6954 7.9045 87.2899 7.17623 85.1052 7.17623L79.0907 7.04381C76.7461 7.04381 75.5738 7.88979 75.5738 9.58174C75.5738 10.5086 76.3132 11.2663 77.7918 11.8548C79.2838 12.4434 81.0822 12.9657 83.187 13.4217C85.3051 13.8631 87.4298 14.4001 89.5612 15.0328C91.6926 15.6654 93.4977 16.71 94.9764 18.1666C96.4684 19.6084 97.2143 21.4107 97.2143 23.5735C97.2143 26.5307 96.2552 28.8112 94.3369 30.4148C92.432 32.0038 89.1616 32.7983 84.5258 32.7983L78.4712 32.6659C75.7403 32.6659 73.2759 31.8935 71.0779 30.3486C68.8799 28.7891 67.7808 26.847 67.7808 24.5224Z" fill="#2F4F4F"/>
<path d="M101.311 30.5031V3.02726C101.311 2.45347 101.497 1.96795 101.87 1.57071C102.243 1.17347 102.689 0.974846 103.209 0.974846H126.248C126.768 0.974846 127.207 1.18082 127.567 1.59278C127.94 2.00473 128.127 2.4976 128.127 3.0714V5.14588C128.127 5.71967 127.94 6.21255 127.567 6.6245C127.207 7.02174 126.768 7.22036 126.248 7.22036H108.844V13.6424H123.83C124.35 13.6424 124.79 13.8484 125.149 14.2604C125.522 14.6576 125.709 15.1431 125.709 15.7169V17.7914C125.709 18.3652 125.522 18.8581 125.149 19.27C124.79 19.6673 124.35 19.8659 123.83 19.8659H108.844V26.3762H126.208C126.714 26.3762 127.147 26.5748 127.507 26.9721C127.867 27.3693 128.047 27.8548 128.047 28.4286V30.5473C128.047 31.1211 127.86 31.6139 127.487 32.0259C127.114 32.4231 126.668 32.6217 126.148 32.6217H103.209C102.689 32.6217 102.243 32.4231 101.87 32.0259C101.497 31.6139 101.311 31.1063 101.311 30.5031Z" fill="#2F4F4F"/>
<path d="M129.345 2.03416C129.345 1.32795 129.692 0.974846 130.384 0.974846H134.181C135.686 0.974846 136.845 1.6737 137.658 3.0714L144.132 14.0838L150.586 3.0714C151.412 1.6737 152.571 0.974846 154.063 0.974846H157.88C158.559 0.974846 158.899 1.32795 158.899 2.03416C158.899 2.35783 158.792 2.70358 158.579 3.0714L147.889 21.3224V30.5914C147.889 31.1652 147.702 31.6507 147.329 32.048C146.97 32.4305 146.53 32.6217 146.01 32.6217H142.254C141.734 32.6217 141.288 32.4305 140.915 32.048C140.542 31.6507 140.356 31.1652 140.356 30.5914V21.3224L129.685 3.0714C129.459 2.70358 129.345 2.35783 129.345 2.03416Z" fill="#2F4F4F"/>
<path d="M160.577 2.7845C160.551 2.28427 160.684 1.8576 160.977 1.5045C161.283 1.1514 161.683 0.974846 162.176 0.974846H164.794C165.286 0.974846 165.679 1.1514 165.972 1.5045C166.279 1.8576 166.419 2.28427 166.392 2.7845L165.793 12.1859C165.726 12.7302 165.54 13.1716 165.233 13.51C164.94 13.8337 164.567 13.9955 164.114 13.9955H162.875C162.409 13.9955 162.023 13.8337 161.716 13.51C161.423 13.1716 161.25 12.7302 161.197 12.1859L160.577 2.7845Z" fill="#2F4F4F"/>
<path d="M170.528 3.0714C170.528 2.4976 170.715 2.00473 171.088 1.59278C171.461 1.18082 171.907 0.974846 172.427 0.974846H188.672C192.655 0.974846 195.592 2.24013 197.484 4.77071C198.536 6.16841 199.063 7.956 199.063 10.1335C199.063 12.2962 198.163 14.1868 196.365 15.8052C198.923 17.3206 200.202 19.6746 200.202 22.8673C200.202 26.0599 199.176 28.4875 197.124 30.15C195.086 31.7978 192.582 32.6217 189.611 32.6217H172.427C171.907 32.6217 171.461 32.4231 171.088 32.0259C170.715 31.6139 170.528 31.1211 170.528 30.5473V3.0714ZM178.062 26.6631H189.491C190.517 26.6631 191.303 26.3247 191.849 25.6479C192.395 24.9712 192.668 24.0443 192.668 22.8673C192.668 21.6902 192.395 20.7634 191.849 20.0866C191.303 19.4098 190.517 19.0714 189.491 19.0714H178.062V26.6631ZM178.062 13.2673H188.752C189.591 13.2673 190.264 12.9951 190.77 12.4507C191.276 11.8916 191.529 11.1192 191.529 10.1335C191.529 9.13301 191.276 8.35324 190.77 7.79416C190.264 7.23508 189.591 6.95554 188.752 6.95554H178.062V13.2673Z" fill="#2F4F4F"/>
</svg>
