<svg width="25" height="24" viewBox="0 0 25 24" fill="none" xmlns="http://www.w3.org/2000/svg">
<path fill-rule="evenodd" clip-rule="evenodd" d="M9.31971 6.90504e-05C8.50714 6.90504e-05 7.674 0.262355 7.01743 0.804069C6.35057 1.35264 5.88943 2.1755 5.88943 3.12521V5.77035H3.32143C1.93286 5.77035 0.75 6.85721 0.75 8.27321V21.4458C0.75 22.8601 1.93286 23.9486 3.32143 23.9486H22.1786C23.5671 23.9486 24.75 22.8601 24.75 21.4458V8.27321C24.75 6.85893 23.5671 5.77035 22.1786 5.77035H19.6106V3.12521C19.6106 2.17721 19.1494 1.35264 18.4826 0.804069C17.8306 0.278908 17.0174 -0.0050893 16.1803 6.90504e-05H9.31971ZM16.182 5.77035V3.42864H9.318V5.77035H16.182ZM8.25 14.8595C8.25 14.2681 8.73 13.7881 9.32143 13.7881H11.6786V11.4309C11.6786 11.1468 11.7915 10.8742 11.9924 10.6733C12.1933 10.4724 12.4658 10.3595 12.75 10.3595C13.0342 10.3595 13.3067 10.4724 13.5076 10.6733C13.7085 10.8742 13.8214 11.1468 13.8214 11.4309V13.7881H16.1786C16.4627 13.7881 16.7353 13.901 16.9362 14.1019C17.1371 14.3028 17.25 14.5753 17.25 14.8595C17.25 15.1437 17.1371 15.4162 16.9362 15.6171C16.7353 15.818 16.4627 15.9309 16.1786 15.9309H13.8214V18.2881C13.8214 18.5722 13.7085 18.8448 13.5076 19.0457C13.3067 19.2466 13.0342 19.3595 12.75 19.3595C12.4658 19.3595 12.1933 19.2466 11.9924 19.0457C11.7915 18.8448 11.6786 18.5722 11.6786 18.2881V15.9309H9.32143C9.03727 15.9309 8.76475 15.818 8.56381 15.6171C8.36288 15.4162 8.25 15.1437 8.25 14.8595Z" fill="#2F4F4F"/>
</svg>
