<svg width="229" height="150" viewBox="0 0 229 150" fill="none" xmlns="http://www.w3.org/2000/svg">
<path d="M0 2C20.3321 2 63.4748 2 91.4217 2C98.9225 2 105 8.0806 105 15.5814V50.4204C105 51.139 105.057 51.8565 105.171 52.5661L106.829 62.9339C106.943 63.6435 107 64.361 107 65.0796V96.3278C107 97.1078 106.933 97.8864 106.799 98.6549L105.201 107.845C105.067 108.614 105 109.392 105 110.172V134.419C105 141.919 98.9194 148 91.4186 148H0" stroke="black" stroke-width="3.39535"/>
<path d="M229 148C208.668 148 165.525 148 137.578 148C130.077 148 124 141.919 124 134.419V99.5796C124 98.861 123.943 98.1435 123.829 97.4339L122.171 87.0661C122.057 86.3565 122 85.639 122 84.9204V53.6722C122 52.8922 122.067 52.1136 122.201 51.3451L123.799 42.1549C123.933 41.3864 124 40.6078 124 39.8278V15.5814C124 8.0806 130.081 2 137.581 2H229" stroke="black" stroke-width="3.39535"/>
<circle cx="115" cy="70" r="20" fill="black"/>
</svg>
