<svg width="135" height="52" viewBox="0 0 135 52" fill="none" xmlns="http://www.w3.org/2000/svg">
<path d="M86.9664 43.18C87.9723 44.2949 85.8599 48.901 84.9211 50.9547C84.6394 51.5767 85.2497 51.829 85.8934 51.3596C90.0779 48.2966 91.1509 41.8891 90.2992 40.962C89.4476 40.0349 82.1381 39.2487 77.6854 41.9947C76.9947 42.4113 77.1087 42.9922 77.8731 42.916C80.3879 42.6519 85.9739 42.0651 86.9664 43.18ZM78.0475 22.6313V19.9615C78.0475 19.5567 78.4029 19.2867 78.8187 19.2867H92.4653C92.9012 19.2867 93.2499 19.5625 93.2499 19.9615V22.2499C93.2499 22.6313 92.881 23.1301 92.2238 23.9222L85.1558 32.7531C87.7845 32.6944 90.5541 33.0406 92.9347 34.2142C93.4712 34.4782 93.6187 34.8655 93.6656 35.2528V38.0986C93.6656 38.4859 93.1694 38.9377 92.6597 38.703C90.4294 37.6982 87.9562 37.1759 85.4476 37.18C82.939 37.1841 80.468 37.7144 78.242 38.7264C77.7726 38.9494 77.2763 38.4976 77.2763 38.1103V35.4112C77.2763 34.977 77.2763 34.2376 77.7793 33.5746L85.9605 23.3061H78.8321C78.3962 23.3061 78.0408 23.0303 78.0408 22.6372M28.2827 39.2663H24.1251C23.9397 39.2539 23.7649 39.1858 23.6305 39.0735C23.496 38.9612 23.4101 38.8116 23.3874 38.6501V20.0085C23.3874 19.6329 23.7428 19.3396 24.1921 19.3396H28.0614C28.4638 19.3513 28.7857 19.6271 28.8125 19.9615V22.3966H28.8863C29.8922 20.0437 31.7966 18.9464 34.3516 18.9464C36.9535 18.9464 38.5763 20.0437 39.7432 22.3966C40.1577 21.3641 40.9364 20.4735 41.9669 19.8534C42.9975 19.2333 44.2265 18.9157 45.4768 18.9464C46.4036 18.932 47.3213 19.1088 48.1555 19.4625C48.9897 19.8163 49.7169 20.337 50.2782 20.9825C51.5926 22.5492 51.3243 24.8317 51.3243 26.8267V38.5915C51.3226 38.6821 51.3004 38.7716 51.2589 38.8547C51.2174 38.9378 51.1575 39.0129 51.0827 39.0756C51.0079 39.1384 50.9196 39.1875 50.823 39.2202C50.7263 39.253 50.6232 39.2686 50.5196 39.2663H46.3754C46.177 39.2548 45.9906 39.1795 45.8519 39.0549C45.7132 38.9303 45.6321 38.7652 45.6243 38.5915V28.7103C45.6243 27.924 45.7048 25.9642 45.5103 25.219C45.2018 23.9692 44.2697 23.6171 43.0693 23.6171C42.0634 23.6171 41.0173 24.2039 40.5881 25.1427C40.1589 26.0815 40.2059 27.6541 40.2059 28.7103V38.5915C40.2042 38.6821 40.1819 38.7716 40.1404 38.8547C40.099 38.9378 40.0391 39.0129 39.9643 39.0756C39.8895 39.1384 39.8012 39.1875 39.7045 39.2202C39.6079 39.253 39.5048 39.2686 39.4012 39.2663H35.2636C35.0649 39.2573 34.8774 39.1827 34.7392 39.0574C34.601 38.9321 34.5224 38.7656 34.5193 38.5915L34.5125 28.7103C34.5125 26.6331 34.9015 23.576 31.9576 23.576C28.9734 23.576 29.0874 26.5568 29.0874 28.7103V38.5915C29.0857 38.6821 29.0635 38.7716 29.022 38.8547C28.9805 38.9378 28.9206 39.0129 28.8458 39.0756C28.771 39.1384 28.6827 39.1875 28.5861 39.2202C28.4894 39.253 28.3863 39.2686 28.2827 39.2663ZM105.005 18.9464C111.161 18.9464 114.494 23.576 114.494 29.4613C114.494 35.1413 110.806 39.6535 104.999 39.6535C98.9499 39.6535 95.6573 35.0239 95.6573 29.2618C95.6573 23.4528 98.9968 18.9464 105.005 18.9464ZM105.025 22.7487C101.968 22.7487 101.773 26.3984 101.773 28.6751C101.773 30.9517 101.733 35.8161 104.992 35.8161C108.211 35.8161 108.358 31.8847 108.358 29.4965C108.358 27.924 108.291 26.0463 107.741 24.5559C107.272 23.2592 106.347 22.7487 105.025 22.7487ZM122.481 39.2663H118.343C118.146 39.2534 117.962 39.1775 117.824 39.0531C117.687 38.9286 117.607 38.7643 117.599 38.5915L117.592 19.9439C117.616 19.7734 117.711 19.6167 117.86 19.5048C118.009 19.3929 118.201 19.3339 118.397 19.3396H122.24C122.41 19.347 122.573 19.4016 122.706 19.4954C122.838 19.5893 122.933 19.7176 122.977 19.8618V22.7076H123.058C124.218 20.161 125.847 18.9464 128.718 18.9464C130.575 18.9464 132.392 19.5332 133.559 21.1409C134.646 22.6313 134.646 25.1427 134.646 26.95V38.6795C134.614 38.8452 134.515 38.9955 134.367 39.1031C134.22 39.2107 134.033 39.2686 133.841 39.2663H129.683C129.503 39.2552 129.332 39.1913 129.198 39.0849C129.064 38.9784 128.975 38.8356 128.946 38.6795V28.5518C128.946 26.5158 129.214 23.535 126.35 23.535C125.344 23.535 124.406 24.1217 123.95 25.0254C123.366 26.1637 123.292 27.2962 123.292 28.5518V38.5915C123.284 38.7741 123.194 38.9466 123.043 39.0725C122.891 39.1985 122.69 39.2679 122.481 39.2663ZM67.1772 30.365V29.5787C64.1662 29.5787 61.001 30.1361 61.001 33.2343C61.001 34.8009 61.9331 35.863 63.5291 35.863C64.6893 35.863 65.7421 35.2352 66.3993 34.2142C67.2174 32.9585 67.1772 31.7791 67.1772 30.365ZM71.3617 39.2134C71.2276 39.3127 71.0624 39.3742 70.8877 39.3899C70.713 39.4056 70.5369 39.3748 70.3826 39.3015C69.0012 38.304 68.7531 37.8345 67.9953 36.8781C65.7153 38.9142 64.1059 39.5186 61.1552 39.5186C57.6614 39.5186 54.9455 37.6409 54.9455 33.8621C54.9455 30.9165 56.7628 28.9039 59.3715 27.924C61.6247 27.0556 64.7697 26.903 67.1772 26.6624V26.193C67.1772 25.3305 67.2442 24.3095 66.6675 23.5643C66.1646 22.8954 65.1922 22.6196 64.3339 22.6196C62.758 22.6196 61.3497 23.3237 61.001 24.7965C60.9339 25.1251 60.659 25.4478 60.2768 25.4654L56.2532 25.084C55.9179 25.0195 55.5357 24.7789 55.6363 24.3212C56.5617 20.0554 60.9742 18.7645 64.924 18.7645C66.9358 18.7645 69.5779 19.2339 71.1739 20.5776C73.1924 22.2206 72.9979 24.4269 72.9979 26.8209V32.4832C72.9979 34.1848 73.8026 34.93 74.5671 35.8513C74.8287 36.174 74.889 36.5671 74.547 36.8136C73.702 37.4355 72.1999 38.5797 71.3684 39.2252L71.3617 39.2134ZM12.7585 30.365V29.5787C9.75422 29.5787 6.58902 30.1361 6.58902 33.2343C6.58902 34.8009 7.51444 35.863 9.11046 35.863C10.2773 35.863 11.3234 35.2352 11.9806 34.2142C12.7987 32.9585 12.7585 31.7791 12.7585 30.365ZM16.943 39.2134C16.8089 39.3127 16.6437 39.3742 16.469 39.3899C16.2943 39.4056 16.1183 39.3748 15.9639 39.3015C14.5825 38.304 14.3411 37.8345 13.5833 36.8781C11.3033 38.9142 9.69387 39.5186 6.74326 39.5186C3.24947 39.5186 0.526855 37.6409 0.526855 33.8621C0.526855 30.9165 2.35087 28.9039 4.95278 27.924C7.20597 27.0556 10.3511 26.903 12.7585 26.6624V26.193C12.7585 25.3305 12.8323 24.3095 12.2555 23.5643C11.7459 22.8954 10.7802 22.6196 9.92858 22.6196C8.34598 22.6196 6.93103 23.3237 6.58902 24.7965C6.52196 25.1251 6.24031 25.4478 5.87149 25.4654L1.84122 25.084C1.50592 25.0195 1.13039 24.7789 1.22427 24.3212C2.14969 20.0554 6.55549 18.7645 10.5053 18.7645C12.5238 18.7645 15.1659 19.2339 16.7552 20.5776C18.7737 22.2206 18.5859 24.4269 18.5859 26.8209V32.4832C18.5859 34.1848 19.3907 34.93 20.1484 35.8513C20.4167 36.174 20.477 36.5671 20.135 36.8136C19.2901 37.4355 17.7879 38.5797 16.9564 39.2252L16.943 39.2134Z" fill="#656565"/>
</svg>
