<svg width="167" height="35" viewBox="0 0 167 35" fill="none" xmlns="http://www.w3.org/2000/svg">
<g clip-path="url(#clip0_46_301)">
<path d="M52.374 5.91782C52.0706 4.88995 51.4787 3.95289 50.6573 3.19997C49.8359 2.44705 48.8136 1.90455 47.6923 1.62652C43.5871 0.600403 27.0665 0.600403 27.0665 0.600403C27.0665 0.600403 10.5454 0.631542 6.44079 1.65766C5.31952 1.93574 4.29729 2.47825 3.47593 3.23117C2.65457 3.98409 2.06273 4.92113 1.75937 5.94896C0.51768 12.635 0.0359496 22.8223 1.79334 29.2406C2.0967 30.2684 2.68854 31.2055 3.5099 31.9584C4.33126 32.7113 5.35349 33.2538 6.47476 33.5319C10.5797 34.558 27.1005 34.558 27.1005 34.558C27.1005 34.558 43.6213 34.558 47.7262 33.5319C48.8475 33.2538 49.8697 32.7113 50.6911 31.9584C51.5125 31.2055 52.1043 30.2684 52.4077 29.2406C53.717 22.5453 54.1207 12.3643 52.3737 5.91812" fill="#656565"/>
<path d="M21.8081 24.8559L35.5133 17.5794L21.8081 10.3026V24.8559Z" fill="white"/>
<path d="M159.574 10.4583C161.372 10.4583 162.728 10.7691 163.678 11.3599C164.628 11.9508 165.307 12.8838 165.714 14.1588C166.121 15.4338 166.29 17.1749 166.29 19.414V23.0525H157.572V24.1718L157.708 27.2504C157.81 27.9346 157.979 28.4322 158.25 28.743C158.522 29.0541 158.963 29.2095 159.54 29.2095C160.32 29.2095 160.863 28.9299 161.134 28.3703C161.439 27.8103 161.575 26.8773 161.609 25.6024L166.121 25.8512C166.155 26.0378 166.155 26.2866 166.155 26.5974C166.155 28.5565 165.578 30.0183 164.391 30.9821C163.203 31.9459 161.575 32.4436 159.438 32.4436C156.86 32.4436 155.062 31.6974 154.044 30.2359C153.027 28.7742 152.484 26.4728 152.484 23.3945V19.6317C152.599 14.3454 153.613 10.4737 159.574 10.4583ZM96.8485 10.8625V26.442C96.8485 27.375 96.9501 28.0592 97.1876 28.4634C97.6693 29.3279 98.9178 29.1069 99.5962 28.6811C99.9878 28.4383 100.303 28.106 100.512 27.7172V10.8622H105.702V32.1013H101.632L101.191 29.4892H101.089C99.9696 31.4483 98.307 32.4433 96.1021 32.4433C92.7084 32.4356 91.8779 30.1941 91.6802 27.9177L91.6673 27.7573C91.6428 27.4125 91.6284 27.0671 91.6242 26.7216V10.8625H96.8485ZM123.614 10.8625V26.442C123.614 27.375 123.716 28.0592 123.954 28.4634C124.436 29.3279 125.684 29.1069 126.362 28.6811C126.754 28.4383 127.069 28.106 127.278 27.7172V10.8622H132.468V32.1013H128.397L127.956 29.4892H127.855C126.736 31.4483 125.073 32.4433 122.868 32.4433C119.474 32.4356 118.644 30.1941 118.446 27.9177L118.433 27.7573C118.409 27.4125 118.394 27.0671 118.39 26.7216V10.8625H123.614ZM81.7861 10.4583C83.4824 10.4583 84.8732 10.7691 85.891 11.4221C86.9085 12.0752 87.6889 13.0704 88.1638 14.4385C88.6387 15.8069 88.8762 17.6414 88.8762 19.9116V22.99C88.8762 25.2602 88.6387 27.0639 88.1638 28.4319C87.6889 29.8006 86.9425 30.7956 85.891 31.4486C84.8396 32.0705 83.4144 32.4124 81.6506 32.4124C79.8184 32.4436 78.3936 32.1016 77.3422 31.4797C76.2907 30.8267 75.544 29.8314 75.1034 28.4634C74.6621 27.095 74.4586 25.2913 74.4586 23.0214V19.9425C74.4586 17.6723 74.6961 15.8066 75.205 14.4382C75.7139 13.039 76.4939 12.0437 77.5797 11.4221C78.6651 10.7999 80.0559 10.458 81.7861 10.458M140.61 1.93768V13.1324H140.644C141.119 12.324 141.73 11.671 142.578 11.1733C143.37 10.6853 144.303 10.4255 145.258 10.4272C146.513 10.4272 147.463 10.738 148.175 11.3287C148.888 11.9509 149.397 12.9148 149.702 14.252C149.998 15.5474 150.166 17.3389 150.176 19.5981L150.177 19.8185V23.1768C150.177 26.3174 149.736 28.6499 148.921 30.1425C148.074 31.6351 146.784 32.3816 145.02 32.3816C144.037 32.3816 143.154 32.1639 142.34 31.7597C141.621 31.3749 141.024 30.8234 140.61 30.1606L140.542 30.0491H140.441L139.898 32.0705H135.589V1.93798L140.61 1.93768ZM119.849 3.02608V6.88172H114.692V32.1013H109.604V6.88202H104.414V3.02637L119.849 3.02608ZM63.9081 3.02608L63.9113 3.03794C63.9608 3.2399 64.6467 6.03503 65.4012 9.29161L65.4607 9.54963L65.5506 9.93961L65.6108 10.2015L65.6409 10.3329L65.7011 10.5962L65.7312 10.7282L65.791 10.9924L65.8784 11.3788C66.3879 13.6339 66.8742 15.8955 67.165 17.5171H67.3009C67.5795 16.0625 67.9842 14.201 68.4158 12.3003L68.529 11.8038C68.5857 11.5551 68.6429 11.3068 68.7005 11.0588L68.7891 10.6742C69.3752 8.15542 69.9788 5.6401 70.5999 3.12839L70.6096 3.08836L70.6251 3.02608H75.8155L69.8108 22.6483V32.0705H64.6884V22.6792H64.6545L58.7178 3.02578L63.9081 3.02608ZM81.6842 13.7543C80.9718 13.7543 80.4969 14.0966 80.1918 14.8119C79.8867 15.5272 79.7508 16.6153 79.7508 18.1393V24.7628C79.7508 26.3177 79.8864 27.4681 80.1578 28.1526C80.4294 28.8367 80.9382 29.1787 81.6842 29.1787C82.3966 29.1787 82.9055 28.8367 83.2109 28.1526C83.5163 27.4681 83.6519 26.3177 83.6519 24.7628V18.139C83.6519 16.6153 83.516 15.4958 83.2109 14.8116C82.9055 14.0966 82.3966 13.7543 81.6842 13.7543ZM141.526 14.3765C141.113 14.7265 140.819 15.158 140.644 15.6974L140.61 15.8069V27.8723C141.031 28.5254 141.628 28.9607 142.679 28.9919C143.222 28.9919 143.663 28.8053 144.003 28.4322C144.342 28.0592 144.579 27.4372 144.715 26.5662C144.845 25.7305 144.913 24.5795 144.918 23.113V20.1604C144.918 18.4813 144.85 17.2063 144.749 16.3045C144.613 15.4026 144.444 14.7496 144.138 14.3765C143.548 13.5989 142.273 13.6084 141.526 14.3765ZM159.472 13.6612C158.895 13.6922 158.488 13.8477 158.25 14.1277C157.979 14.4385 157.81 14.905 157.708 15.5892C157.608 16.2594 157.574 18.6023 157.572 18.696V20.2227H161.372V18.8763V18.9021C161.369 19.3728 161.359 18.629 161.335 17.7158L161.332 17.5931C161.311 16.7906 161.28 15.8958 161.236 15.5892C161.134 14.8739 160.964 14.3762 160.693 14.0966C160.422 13.8166 160.015 13.6612 159.472 13.6612" fill="#656565"/>
</g>
<defs>
<clipPath id="clip0_46_301">
<rect width="165.645" height="34.4016" fill="white" transform="translate(0.645508 0.600403)"/>
</clipPath>
</defs>
</svg>
