<svg width="106" height="35" viewBox="0 0 106 35" fill="none" xmlns="http://www.w3.org/2000/svg">
<g clip-path="url(#clip0_46_306)">
<path d="M101.868 21.6247L104.776 23.5636C103.832 24.954 101.575 27.3396 97.6711 27.3396C92.8238 27.3396 89.2139 23.5892 89.2139 18.8183C89.2139 13.7414 92.8621 10.2971 97.263 10.2971C101.689 10.2971 103.858 13.8178 104.56 15.7184L104.942 16.688L93.5382 21.4078C94.4056 23.1172 95.7579 23.9846 97.6711 23.9846C99.5847 23.9846 100.911 23.0406 101.868 21.6247ZM92.926 18.5506L100.541 15.3869C100.12 14.3282 98.8705 13.5757 97.3777 13.5757C95.4772 13.5757 92.8367 15.2595 92.926 18.5506Z" fill="#656565"/>
<path d="M83.7158 1.61011H87.3894V26.5615H83.7158V1.61011Z" fill="#656565"/>
<path d="M77.9241 10.9604H81.4703V26.1149C81.4703 32.4037 77.7583 34.9932 73.37 34.9932C69.2371 34.9932 66.7497 32.2124 65.8184 29.9546L69.0712 28.6023C69.6579 29.9927 71.0739 31.6384 73.37 31.6384C76.1891 31.6384 77.9241 29.8907 77.9241 26.6252V25.4007H77.7965C76.9545 26.4211 75.3473 27.3395 73.3063 27.3395C69.0456 27.3395 65.1421 23.6274 65.1421 18.8439C65.1421 14.0347 69.0456 10.2845 73.3063 10.2845C75.3346 10.2845 76.9545 11.1902 77.7965 12.1852H77.9241V10.9604ZM78.1791 18.8439C78.1791 15.8334 76.1764 13.6393 73.6252 13.6393C71.0483 13.6393 68.8798 15.8334 68.8798 18.8439C68.8798 21.816 71.0483 23.9718 73.6252 23.9718C76.1766 23.9847 78.1793 21.816 78.1793 18.8439" fill="#656565"/>
<path d="M44.9749 18.78C44.9749 23.6912 41.1481 27.3011 36.4538 27.3011C31.7596 27.3011 27.9326 23.6785 27.9326 18.78C27.9326 13.8434 31.7596 10.2462 36.4538 10.2462C41.1481 10.2462 44.9749 13.8434 44.9749 18.78ZM41.2501 18.78C41.2501 15.7187 39.0304 13.6136 36.4538 13.6136C33.8771 13.6136 31.6574 15.7187 31.6574 18.78C31.6574 21.8159 33.8771 23.9464 36.4538 23.9464C39.0306 23.9464 41.2501 21.8159 41.2501 18.78Z" fill="#656565"/>
<path d="M63.5862 18.8183C63.5862 23.7295 59.7593 27.3394 55.0651 27.3394C50.3707 27.3394 46.5439 23.7293 46.5439 18.8183C46.5439 13.8816 50.3707 10.2971 55.0651 10.2971C59.7593 10.2971 63.5862 13.8689 63.5862 18.8183ZM59.8485 18.8183C59.8485 15.7569 57.629 13.6519 55.0522 13.6519C52.4753 13.6519 50.2558 15.7569 50.2558 18.8183C50.2558 21.8542 52.4756 23.9846 55.0522 23.9846C57.6417 23.9846 59.8485 21.8415 59.8485 18.8183Z" fill="#656565"/>
<path d="M13.9262 23.602C8.5813 23.602 4.39741 19.2903 4.39741 13.9454C4.39741 8.60064 8.5813 4.28897 13.9262 4.28897C16.8092 4.28897 18.9139 5.42422 20.4701 6.87851L23.0343 4.31457C20.8657 2.23532 17.9701 0.653259 13.9262 0.653259C6.60423 0.653464 0.442871 6.62357 0.442871 13.9454C0.442871 21.2672 6.60423 27.2375 13.9262 27.2375C17.8808 27.2375 20.8657 25.9364 23.2001 23.5127C25.5982 21.1144 26.338 17.7467 26.338 15.0169C26.338 14.1622 26.2361 13.2821 26.1212 12.6316H13.9262V16.1778H22.6133C22.3581 18.3975 21.6566 19.9155 20.6233 20.9485C19.3732 22.2116 17.3961 23.602 13.9262 23.602Z" fill="#656565"/>
</g>
<defs>
<clipPath id="clip0_46_306">
<rect width="104.843" height="34.4016" fill="white" transform="translate(0.290527 0.600403)"/>
</clipPath>
</defs>
</svg>
