<svg width="160" height="51" viewBox="0 0 160 51" fill="none" xmlns="http://www.w3.org/2000/svg">
<path d="M46.0849 36.2936C45.8606 35.6637 45.5983 35.0544 45.3488 34.4899C44.9643 33.6267 44.5726 32.7666 44.1737 31.91L44.1426 31.843C40.6183 24.2176 36.9281 16.6701 33.0744 9.20579L32.9096 8.88679C32.5089 8.10385 32.1013 7.32451 31.6866 6.54887C31.189 5.5629 30.5855 4.63409 29.8867 3.77888C29.0996 2.84011 28.1162 2.08534 27.0058 1.56774C25.8948 1.04994 24.6839 0.781699 23.4582 0.78186C22.2324 0.782022 21.0216 1.05058 19.9107 1.56868C18.8005 2.08653 17.8173 2.84151 17.0305 3.78044C16.3326 4.63581 15.7296 5.56437 15.2321 6.54981C14.8137 7.33261 14.4023 8.11911 13.9979 8.90922L13.8452 9.20516C9.99162 16.6699 6.30126 24.2177 2.77677 31.8433L2.7263 31.9523C2.33425 32.7949 1.9491 33.6407 1.57089 34.4896C1.32168 35.0538 1.05969 35.6628 0.835092 36.2942C0.19159 38.014 -0.0135356 39.867 0.238228 41.6859C0.505569 43.5247 1.24915 45.2615 2.39516 46.7241C3.54225 48.1876 5.05143 49.3264 6.77351 50.028C8.07511 50.5542 9.4663 50.8233 10.8702 50.8205C11.3118 50.8205 11.7518 50.7948 12.1904 50.7435C13.966 50.5177 15.6787 49.9398 17.2283 49.0439C19.2603 47.9022 21.2674 46.2291 23.4598 43.8382C25.6523 46.2291 27.659 47.9022 29.6914 49.0436C31.2409 49.9396 32.9536 50.5176 34.7292 50.7435C35.1674 50.7944 35.6082 50.8201 36.0494 50.8205C37.4534 50.8236 38.8446 50.5545 40.1458 50.028C41.868 49.3265 43.3773 48.1876 44.5245 46.7241C45.6705 45.2615 46.4141 43.5247 46.6814 41.6859C46.9329 39.8668 46.7278 38.0137 46.0849 36.2936ZM23.4598 38.9C20.7456 35.4597 19.0042 32.2648 18.393 29.5867C18.1423 28.5832 18.0831 27.5415 18.2186 26.5161C18.3254 25.7642 18.6016 25.0464 19.0263 24.4168C19.5493 23.7387 20.2209 23.1899 20.9895 22.8125C21.7585 22.4352 22.6037 22.239 23.4602 22.2391C24.3167 22.2392 25.1619 22.4356 25.9308 22.8131C26.6992 23.1905 27.3708 23.7394 27.8936 24.4174C28.3184 25.0471 28.5946 25.765 28.7014 26.517C28.836 27.5428 28.7766 28.5847 28.5263 29.5885C27.9145 32.2666 26.1734 35.4606 23.4598 38.9ZM43.5114 41.233C43.3246 42.5185 42.8048 43.7328 42.0034 44.7553C41.2014 45.7788 40.1461 46.5751 38.9418 47.0655C37.7235 47.5536 36.4018 47.7265 35.099 47.5683C33.7449 47.3938 32.4399 46.948 31.262 46.2577C29.4531 45.2416 27.622 43.6815 25.5613 41.3928C28.8416 37.3484 30.8901 33.6205 31.6483 30.2997C31.9893 28.9036 32.0633 27.4556 31.8664 26.032C31.6872 24.8053 31.2319 23.6352 30.535 22.61C29.7176 21.5033 28.6517 20.6041 27.4232 19.9848C26.194 19.3651 24.8367 19.0423 23.4601 19.0423C22.0836 19.0423 20.7262 19.3651 19.497 19.9848C18.2685 20.6039 17.2025 21.5029 16.385 22.6094C15.6882 23.6342 15.2329 24.8038 15.0536 26.0301C14.8564 27.4532 14.93 28.9008 15.2704 30.2966C16.0283 33.6183 18.0768 37.3475 21.358 41.3931C19.2977 43.6815 17.4666 45.2416 15.6576 46.258C14.4797 46.9482 13.1747 47.3939 11.8207 47.5683C10.5177 47.7265 9.1959 47.5536 7.97751 47.0655C6.77362 46.5748 5.71848 45.7786 4.91625 44.7556C4.11495 43.733 3.59516 42.5186 3.40852 41.233C3.22926 39.9265 3.38204 38.5958 3.85274 37.364C4.03155 36.8605 4.2412 36.3671 4.50069 35.7802C4.87184 34.9474 5.24972 34.1176 5.6343 33.2909L5.68476 33.1812C9.18986 25.5981 12.86 18.0923 16.6925 10.6693L16.8457 10.3718C17.2382 9.61076 17.6438 8.82356 18.0532 8.06315C18.4449 7.27922 18.9189 6.53917 19.4671 5.85544C19.9538 5.2686 20.5638 4.79626 21.2538 4.47204C21.9438 4.14782 22.6968 3.9797 23.4592 3.97964C24.2216 3.97958 24.9746 4.14758 25.6647 4.4717C26.3547 4.79581 26.9648 5.26805 27.4516 5.85482C28.0002 6.53796 28.4743 7.27774 28.8659 8.06159C29.2711 8.81546 29.6733 9.59549 30.0624 10.3497L30.2275 10.6696C34.0601 18.0927 37.7301 25.5985 41.2349 33.1819L41.266 33.2492C41.6492 34.0787 42.0458 34.936 42.4189 35.7805C42.6788 36.368 42.8887 36.8621 43.0672 37.3636C43.5379 38.5955 43.6907 39.9262 43.5114 41.2327M65.3153 38.4973C64.0661 38.4973 62.9167 38.2469 61.8668 37.7462C60.817 37.2453 59.9177 36.5437 59.118 35.6425C58.3184 34.7413 57.7187 33.6893 57.2686 32.537C56.8187 31.3349 56.6187 30.0324 56.6187 28.6303C56.6187 27.2282 56.8689 25.8753 57.3187 24.6731C57.7686 23.471 58.4184 22.4193 59.218 21.4676C60.0177 20.5661 60.9672 19.8147 62.0668 19.3138C63.1665 18.8129 64.316 18.5625 65.6156 18.5625C66.8648 18.5625 67.9644 18.8129 68.9644 19.364C69.9641 19.8649 70.7637 20.6163 71.4132 21.5676L71.5634 19.1135H76.1613V37.9966H71.5634L71.4132 35.2419C70.7637 36.2434 69.9139 37.045 68.8143 37.6459C67.8146 38.1973 66.615 38.4976 65.3156 38.4976M66.5156 33.9899C67.4152 33.9899 68.2149 33.7395 68.9647 33.2887C69.6644 32.7878 70.2139 32.1367 70.664 31.3355C71.0637 30.534 71.2637 29.5823 71.2637 28.5303C71.2637 27.4783 71.0637 26.5267 70.664 25.7254C70.2641 24.9239 69.6641 24.2728 68.9647 23.7722C68.2647 23.271 67.4152 23.0707 66.5156 23.0707C65.6159 23.0707 64.8163 23.3212 64.0665 23.7719C63.3668 24.2728 62.817 24.9239 62.3671 25.7251C61.9672 26.5267 61.7672 27.4783 61.7672 28.5303C61.7672 29.5823 61.9672 30.534 62.3671 31.3352C62.7668 32.1367 63.3668 32.7878 64.0665 33.2884C64.8163 33.7395 65.6159 33.9899 66.5156 33.9899ZM84.009 14.0047C84.009 14.5557 83.909 15.0567 83.6589 15.4573C83.3997 15.8748 83.0386 16.2196 82.6094 16.4591C82.1596 16.7096 81.6599 16.8096 81.1602 16.8096C80.6606 16.8096 80.1603 16.7096 79.7104 16.4591C79.2813 16.2196 78.9201 15.8748 78.6609 15.4573C78.4111 15.0065 78.3111 14.5557 78.3111 14.0047C78.3111 13.4539 78.4108 12.953 78.6609 12.5521C78.9108 12.1013 79.2606 11.801 79.7108 11.5506C80.1603 11.3001 80.6603 11.1998 81.1602 11.1998C81.6602 11.1998 82.1596 11.3001 82.6094 11.5506C83.0386 11.79 83.3999 12.1346 83.6592 12.5521C83.8589 12.953 84.009 13.4038 84.009 14.0047ZM78.6609 37.9468V19.0634H83.6589V37.9465L78.6609 37.9468ZM97.0042 24.0221V24.0725C96.7544 23.9722 96.4544 23.9221 96.2042 23.8722C95.9046 23.8221 95.6544 23.8221 95.3547 23.8221C93.9551 23.8221 92.9056 24.2227 92.2059 25.0744C91.4561 25.9257 91.1063 27.1279 91.1063 28.6805V37.9468H86.1083V19.0634H90.7063L90.8565 21.9184C91.3561 20.9166 91.9561 20.1652 92.8056 19.6144C93.6053 19.0631 94.5548 18.8129 95.6544 18.8129C96.0046 18.8129 96.3544 18.8628 96.6544 18.9129C96.8039 18.9631 96.9039 18.9631 97.0042 19.0132V24.0221ZM99.0032 37.9468V11.2998H104.001V21.4676C104.701 20.5664 105.501 19.8649 106.5 19.3141C107.5 18.8132 108.6 18.5126 109.849 18.5126C111.099 18.5126 112.248 18.7631 113.298 19.264C114.348 19.7649 115.247 20.4661 116.047 21.3677C116.847 22.2692 117.446 23.3212 117.896 24.4735C118.346 25.6753 118.546 26.9774 118.546 28.3799C118.546 29.7826 118.296 31.1349 117.846 32.337C117.396 33.5392 116.747 34.5909 115.947 35.5425C115.147 36.4444 114.198 37.1954 113.098 37.6963C111.998 38.1973 110.849 38.4477 109.55 38.4477C108.3 38.4477 107.2 38.1973 106.201 37.6462C105.201 37.1453 104.401 36.3939 103.752 35.4425L103.601 37.8967L99.0032 37.9468ZM108.65 33.9899C109.55 33.9899 110.349 33.7395 111.099 33.2887C111.798 32.7878 112.348 32.1367 112.798 31.3355C113.198 30.534 113.398 29.5823 113.398 28.5303C113.398 27.4783 113.198 26.5267 112.798 25.7254C112.348 24.9239 111.798 24.2728 111.099 23.7722C110.399 23.271 109.55 23.0707 108.65 23.0707C107.75 23.0707 106.95 23.3212 106.201 23.7719C105.501 24.2728 104.951 24.9239 104.501 25.7251C104.101 26.5267 103.901 27.4783 103.901 28.5303C103.901 29.5823 104.101 30.534 104.501 31.3352C104.901 32.1367 105.501 32.7878 106.201 33.2884C106.95 33.7395 107.75 33.9899 108.65 33.9899ZM120.445 37.9468V19.0634H125.043L125.194 21.5178C125.743 20.616 126.493 19.9147 127.443 19.364C128.392 18.8129 129.492 18.5625 130.742 18.5625C132.141 18.5625 133.34 18.9129 134.34 19.5643C135.39 20.2154 136.189 21.167 136.739 22.3692C137.289 23.5713 137.589 25.0236 137.589 26.6768V37.9966H132.591V27.3279C132.591 26.0257 132.291 24.9738 131.691 24.2221C131.091 23.4713 130.291 23.0704 129.242 23.0704C128.492 23.0704 127.842 23.2205 127.243 23.5713C126.693 23.9218 126.243 24.3725 125.893 25.0239C125.543 25.6248 125.394 26.3759 125.394 27.1276V37.9465L120.445 37.9468ZM140.088 37.9468V11.2998H145.086V21.4676C145.786 20.5664 146.585 19.8649 147.585 19.3141C148.585 18.8132 149.685 18.5126 150.934 18.5126C152.184 18.5126 153.333 18.7631 154.383 19.264C155.432 19.7649 156.332 20.4661 157.131 21.3677C157.932 22.2692 158.531 23.3212 158.981 24.4735C159.432 25.6753 159.63 26.9774 159.63 28.3799C159.63 29.7826 159.381 31.1349 158.931 32.337C158.481 33.5392 157.832 34.5909 157.031 35.5425C156.232 36.4444 155.282 37.1954 154.183 37.6963C153.083 38.1973 151.933 38.4477 150.634 38.4477C149.385 38.4477 148.285 38.1973 147.285 37.6462C146.285 37.1453 145.486 36.3939 144.836 35.4425L144.686 37.8967L140.088 37.9468ZM149.784 33.9899C150.684 33.9899 151.484 33.7395 152.233 33.2887C152.933 32.7878 153.483 32.1367 153.933 31.3355C154.333 30.534 154.533 29.5823 154.533 28.5303C154.533 27.4783 154.333 26.5267 153.933 25.7254C153.533 24.9239 152.933 24.2728 152.233 23.7722C151.533 23.271 150.684 23.0707 149.784 23.0707C148.885 23.0707 148.085 23.3212 147.335 23.7719C146.635 24.2728 146.086 24.9239 145.636 25.7251C145.186 26.5267 145.036 27.4783 145.036 28.5303C145.036 29.5823 145.236 30.534 145.636 31.3352C146.036 32.1367 146.636 32.7878 147.335 33.2884C148.085 33.7395 148.835 33.9899 149.784 33.9899Z" fill="#646464"/>
</svg>
