<svg width="23" height="22" viewBox="0 0 23 22" fill="none" xmlns="http://www.w3.org/2000/svg">
<path d="M2.1502 0.199951C1.83194 0.199951 1.52671 0.326379 1.30167 0.551423C1.07662 0.776467 0.950195 1.08169 0.950195 1.39995V20.6C0.950195 20.9182 1.07662 21.2234 1.30167 21.4485C1.52671 21.6735 1.83194 21.8 2.1502 21.8H21.3502C21.6685 21.8 21.9737 21.6735 22.1987 21.4485C22.4238 21.2234 22.5502 20.9182 22.5502 20.6V1.39995C22.5502 1.08169 22.4238 0.776467 22.1987 0.551423C21.9737 0.326379 21.6685 0.199951 21.3502 0.199951H2.1502ZM19.7145 6.19995C19.9554 6.19995 20.1511 6.39472 20.1511 6.63657V11.1467C20.1511 11.5344 19.6803 11.7301 19.4062 11.455L17.7825 9.83226L13.3868 14.1799C13.2183 14.3465 12.991 14.4399 12.754 14.4399C12.5171 14.4399 12.2898 14.3465 12.1213 14.1799L9.1905 11.2815L4.88712 15.5858C4.71832 15.7546 4.48938 15.8494 4.25066 15.8494C4.01194 15.8494 3.783 15.7546 3.6142 15.5858C3.44539 15.417 3.35056 15.1881 3.35056 14.9493C3.35056 14.7106 3.44539 14.4817 3.6142 14.3129L8.54989 9.37441C8.71816 9.20635 8.94611 9.11172 9.18393 9.1112C9.42175 9.11068 9.65012 9.20431 9.81912 9.37164L12.7545 12.2747L16.5105 8.55933L14.8951 6.94395C14.8345 6.88279 14.7933 6.80506 14.7767 6.72055C14.7602 6.63604 14.769 6.54852 14.802 6.46899C14.8351 6.38947 14.8909 6.32149 14.9625 6.27362C15.0341 6.22575 15.1182 6.20012 15.2043 6.19995H19.7145Z" fill="#2F4F4F"/>
</svg>
