<svg width="48" height="48" viewBox="0 0 48 48" fill="none" xmlns="http://www.w3.org/2000/svg">
<path d="M16 22C18.6522 22 21.1957 20.9464 23.0711 19.0711C24.9464 17.1957 26 14.6522 26 12C26 9.34784 24.9464 6.8043 23.0711 4.92893C21.1957 3.05357 18.6522 2 16 2C13.3478 2 10.8043 3.05357 8.92893 4.92893C7.05357 6.8043 6 9.34784 6 12C6 14.6522 7.05357 17.1957 8.92893 19.0711C10.8043 20.9464 13.3478 22 16 22ZM16 22C20.026 22 23.544 23.52 26.046 26.046C27.5294 27.55 28.6391 29.3811 29.286 31.392M16 22C8 22 2 28 2 36V46H22M24 37.648L32.38 44L46 26" stroke="#2F4F4F" stroke-width="2"/>
</svg>
