<svg width="36" height="32" viewBox="0 0 36 32" fill="none" xmlns="http://www.w3.org/2000/svg">
<path d="M35.5 15.75C35.5 16.0815 35.3683 16.3995 35.1339 16.6339C34.8995 16.8683 34.5815 17 34.25 17H29.25V22H30.5C31.163 22 31.7989 22.2634 32.2678 22.7322C32.7366 23.2011 33 23.837 33 24.5V29.5C33 30.163 32.7366 30.7989 32.2678 31.2678C31.7989 31.7366 31.163 32 30.5 32H25.5C24.837 32 24.2011 31.7366 23.7322 31.2678C23.2634 30.7989 23 30.163 23 29.5V24.5C23 23.837 23.2634 23.2011 23.7322 22.7322C24.2011 22.2634 24.837 22 25.5 22H26.75V17H9.25V22H10.5C11.163 22 11.7989 22.2634 12.2678 22.7322C12.7366 23.2011 13 23.837 13 24.5V29.5C13 30.163 12.7366 30.7989 12.2678 31.2678C11.7989 31.7366 11.163 32 10.5 32H5.5C4.83696 32 4.20107 31.7366 3.73223 31.2678C3.26339 30.7989 3 30.163 3 29.5V24.5C3 23.837 3.26339 23.2011 3.73223 22.7322C4.20107 22.2634 4.83696 22 5.5 22H6.75V17H1.75C1.41848 17 1.10054 16.8683 0.866116 16.6339C0.631696 16.3995 0.5 16.0815 0.5 15.75C0.5 15.4185 0.631696 15.1005 0.866116 14.8661C1.10054 14.6317 1.41848 14.5 1.75 14.5H16.75V10.75H15.5C14.837 10.75 14.2011 10.4866 13.7322 10.0178C13.2634 9.54893 13 8.91304 13 8.25V3.25C13 2.58696 13.2634 1.95107 13.7322 1.48223C14.2011 1.01339 14.837 0.75 15.5 0.75H20.5C21.163 0.75 21.7989 1.01339 22.2678 1.48223C22.7366 1.95107 23 2.58696 23 3.25V8.25C23 8.91304 22.7366 9.54893 22.2678 10.0178C21.7989 10.4866 21.163 10.75 20.5 10.75H19.25V14.5H34.25C34.5815 14.5 34.8995 14.6317 35.1339 14.8661C35.3683 15.1005 35.5 15.4185 35.5 15.75Z" fill="#2F4F4F"/>
</svg>
