<svg width="40" height="40" viewBox="0 0 40 40" fill="none" xmlns="http://www.w3.org/2000/svg">
<path d="M40 24.9998V39.9998H20V24.9998H25V19.9998H35V24.9998H40ZM27.5 24.9998H32.5V22.4998H27.5V24.9998ZM37.5 32.4998H35V34.9998H32.5V32.4998H27.5V34.9998H25V32.4998H22.5V37.4998H37.5V32.4998ZM37.5 27.4998H22.5V29.9998H37.5V27.4998ZM30.5664 17.4998C29.8633 16.7055 29.0299 16.0935 28.0664 15.6638C27.1029 15.2341 26.0807 15.0128 25 14.9998C23.9583 14.9998 22.9883 15.1951 22.0898 15.5857C21.1914 15.9763 20.3971 16.5102 19.707 17.1873C19.0169 17.8643 18.4766 18.6651 18.0859 19.5896C17.6953 20.5141 17.5 21.4841 17.5 22.4998C17.5 23.6977 17.2331 24.824 16.6992 25.8787C16.1654 26.9333 15.4102 27.8188 14.4336 28.5349C15.0195 28.8344 15.5664 29.1794 16.0742 29.5701C16.582 29.9607 17.0573 30.4034 17.5 30.8982V37.4998C17.5 36.4711 17.3047 35.5011 16.9141 34.5896C16.5234 33.6781 15.9896 32.8839 15.3125 32.2068C14.6354 31.5297 13.8346 30.9893 12.9102 30.5857C11.9857 30.182 11.0156 29.9867 10 29.9998C8.95833 29.9998 7.98828 30.1951 7.08984 30.5857C6.19141 30.9763 5.39714 31.5102 4.70703 32.1873C4.01693 32.8643 3.47656 33.6651 3.08594 34.5896C2.69531 35.5141 2.5 36.4841 2.5 37.4998H0C0 36.5492 0.130208 35.6313 0.390625 34.7458C0.651042 33.8604 1.02214 33.0206 1.50391 32.2263C1.98568 31.432 2.57161 30.7289 3.26172 30.1169C3.95182 29.505 4.72005 28.9776 5.56641 28.5349C4.60286 27.8318 3.85417 26.9529 3.32031 25.8982C2.78646 24.8435 2.51302 23.7107 2.5 22.4998C2.5 21.4711 2.69531 20.5011 3.08594 19.5896C3.47656 18.6781 4.01042 17.8839 4.6875 17.2068C5.36458 16.5297 6.15885 15.9893 7.07031 15.5857C7.98177 15.182 8.95833 14.9867 10 14.9998C11.1979 14.9998 12.3242 15.2667 13.3789 15.8005C14.4336 16.3344 15.319 17.0896 16.0352 18.0662C16.5299 17.0896 17.1615 16.2172 17.9297 15.449C18.6979 14.6807 19.5768 14.0427 20.5664 13.5349C19.6029 12.8318 18.8542 11.9529 18.3203 10.8982C17.7865 9.84351 17.513 8.71069 17.5 7.49976C17.5 6.47111 17.6953 5.50106 18.0859 4.5896C18.4766 3.67814 19.0104 2.88387 19.6875 2.20679C20.3646 1.5297 21.1589 0.989339 22.0703 0.585693C22.9818 0.182048 23.9583 -0.013265 25 -0.000244141C26.0286 -0.000244141 26.9987 0.195068 27.9102 0.585693C28.8216 0.976318 29.6159 1.51017 30.293 2.18726C30.9701 2.86434 31.5104 3.66512 31.9141 4.5896C32.3177 5.51408 32.513 6.48413 32.5 7.49976C32.5 8.69767 32.2331 9.82397 31.6992 10.8787C31.1654 11.9333 30.4102 12.8188 29.4336 13.5349C30.319 13.9776 31.1198 14.531 31.8359 15.1951C32.5521 15.8591 33.1576 16.6274 33.6523 17.4998H30.5664ZM10 27.4998C10.6901 27.4998 11.3346 27.3695 11.9336 27.1091C12.5326 26.8487 13.0664 26.4906 13.5352 26.0349C14.0039 25.5792 14.362 25.0518 14.6094 24.4529C14.8568 23.8539 14.987 23.2029 15 22.4998C15 21.8097 14.8698 21.1651 14.6094 20.5662C14.349 19.9672 13.9909 19.4333 13.5352 18.9646C13.0794 18.4958 12.5521 18.1378 11.9531 17.8904C11.3542 17.643 10.7031 17.5128 10 17.4998C9.3099 17.4998 8.66536 17.63 8.06641 17.8904C7.46745 18.1508 6.93359 18.5089 6.46484 18.9646C5.99609 19.4203 5.63802 19.9477 5.39062 20.5466C5.14323 21.1456 5.01302 21.7966 5 22.4998C5 23.1899 5.13021 23.8344 5.39062 24.4333C5.65104 25.0323 6.00911 25.5662 6.46484 26.0349C6.92057 26.5037 7.44792 26.8617 8.04688 27.1091C8.64583 27.3565 9.29688 27.4867 10 27.4998ZM20 7.49976C20 8.18986 20.1302 8.83439 20.3906 9.43335C20.651 10.0323 21.0091 10.5662 21.4648 11.0349C21.9206 11.5037 22.4479 11.8617 23.0469 12.1091C23.6458 12.3565 24.2969 12.4867 25 12.4998C25.6901 12.4998 26.3346 12.3695 26.9336 12.1091C27.5326 11.8487 28.0664 11.4906 28.5352 11.0349C29.0039 10.5792 29.362 10.0518 29.6094 9.45288C29.8568 8.85392 29.987 8.20288 30 7.49976C30 6.80965 29.8698 6.16512 29.6094 5.56616C29.349 4.9672 28.9909 4.43335 28.5352 3.9646C28.0794 3.49585 27.5521 3.13778 26.9531 2.89038C26.3542 2.64299 25.7031 2.51278 25 2.49976C24.3099 2.49976 23.6654 2.62996 23.0664 2.89038C22.4674 3.1508 21.9336 3.50887 21.4648 3.9646C20.9961 4.42033 20.638 4.94767 20.3906 5.54663C20.1432 6.14559 20.013 6.79663 20 7.49976Z" fill="#2F4F4F"/>
</svg>
